<svg width="189" height="64" viewBox="0 0 189 64" fill="none" xmlns="http://www.w3.org/2000/svg">
<g clip-path="url(#clip0_6_840)">
<path d="M65.2642 56.7261H56.6813V58.2067H65.2642V56.7261Z" fill="white"/>
<path d="M44.4937 56.7261H21.1245V58.2067H44.4937V56.7261Z" fill="white"/>
<path d="M11.0019 56.7261H2.41895V58.2067H11.0019V56.7261Z" fill="white"/>
<path d="M57.6786 62.5193H50.0902V63.9999H57.6786V62.5193Z" fill="white"/>
<path d="M50.0902 62.5193H39.6136V63.9999H50.0902V62.5193Z" fill="white"/>
<path d="M28.7662 62.5193H11.0019V63.9999H28.7662V62.5193Z" fill="white"/>
<path d="M65.2839 51.9443H2.44702V53.4249H65.2839V51.9443Z" fill="white"/>
<path d="M63.6572 40.5379C62.6093 40.5379 62.0698 40.1558 61.5922 39.8187C61.1764 39.5237 60.8449 39.2905 60.1313 39.2905C59.4177 39.2905 59.0862 39.5237 58.6704 39.8187C58.1928 40.1558 57.6533 40.5379 56.6082 40.5379C55.5631 40.5379 55.0209 40.1558 54.546 39.8187C54.1302 39.5237 53.8015 39.2905 53.0851 39.2905C52.7986 39.2905 52.5654 39.0573 52.5654 38.7707C52.5654 38.4842 52.7986 38.251 53.0851 38.251C54.1331 38.251 54.6725 38.6331 55.1501 38.973C55.5659 39.268 55.8946 39.5012 56.611 39.5012C57.3274 39.5012 57.6561 39.268 58.072 38.973C58.5496 38.6359 59.089 38.251 60.1369 38.251C61.1849 38.251 61.7243 38.6331 62.2019 38.973C62.6177 39.268 62.9492 39.5012 63.6628 39.5012C64.3764 39.5012 64.7079 39.268 65.1238 38.973C65.6014 38.6359 66.1408 38.251 67.1887 38.251C67.4753 38.251 67.7085 38.4842 67.7085 38.7707C67.7085 39.0573 67.4753 39.2905 67.1887 39.2905C66.4723 39.2905 66.1436 39.5237 65.7278 39.8187C65.2502 40.1558 64.7108 40.5379 63.6628 40.5379H63.6572Z" fill="white"/>
<path d="M63.6572 44.5639C62.6093 44.5639 62.0698 44.1818 61.5922 43.8419C61.1764 43.5469 60.8449 43.3137 60.1313 43.3137C59.4177 43.3137 59.0862 43.5469 58.6704 43.8419C58.1928 44.179 57.6533 44.5639 56.6082 44.5639C55.5631 44.5639 55.0209 44.1818 54.546 43.8419C54.1302 43.5469 53.8015 43.3137 53.0851 43.3137C52.7986 43.3137 52.5654 43.0805 52.5654 42.7939C52.5654 42.5074 52.7986 42.2742 53.0851 42.2742C54.1331 42.2742 54.6725 42.6563 55.1501 42.9962C55.5659 43.2912 55.8946 43.5244 56.611 43.5244C57.3274 43.5244 57.6561 43.2912 58.072 42.9962C58.5496 42.6591 59.089 42.2742 60.1369 42.2742C61.1849 42.2742 61.7243 42.6563 62.2019 42.9962C62.6177 43.2912 62.9492 43.5244 63.6628 43.5244C64.3764 43.5244 64.7079 43.2912 65.1238 42.9962C65.6014 42.6591 66.1408 42.2742 67.1887 42.2742C67.4753 42.2742 67.7085 42.5074 67.7085 42.7939C67.7085 43.0805 67.4753 43.3137 67.1887 43.3137C66.4723 43.3137 66.1436 43.5469 65.7278 43.8419C65.2502 44.179 64.7108 44.5639 63.6628 44.5639H63.6572Z" fill="white"/>
<path d="M63.6572 48.5927C62.6093 48.5927 62.0698 48.2106 61.5922 47.8707C61.1764 47.5757 60.8449 47.3425 60.1313 47.3425C59.4177 47.3425 59.0862 47.5757 58.6704 47.8707C58.1928 48.2078 57.6533 48.5927 56.6082 48.5927C55.5631 48.5927 55.0209 48.2106 54.546 47.8707C54.1302 47.5757 53.8015 47.3425 53.0851 47.3425C52.7986 47.3425 52.5654 47.1093 52.5654 46.8227C52.5654 46.5362 52.7986 46.303 53.0851 46.303C54.1331 46.303 54.6725 46.6851 55.1501 47.025C55.5659 47.32 55.8946 47.5532 56.611 47.5532C57.3274 47.5532 57.6561 47.32 58.072 47.025C58.5496 46.6879 59.089 46.303 60.1369 46.303C61.1849 46.303 61.7243 46.6851 62.2019 47.025C62.6177 47.32 62.9492 47.5532 63.6628 47.5532C64.3764 47.5532 64.7079 47.32 65.1238 47.025C65.6014 46.6879 66.1408 46.303 67.1887 46.303C67.4753 46.303 67.7085 46.5362 67.7085 46.8227C67.7085 47.1093 67.4753 47.3425 67.1887 47.3425C66.4723 47.3425 66.1436 47.5757 65.7278 47.8707C65.2502 48.2078 64.7108 48.5927 63.6628 48.5927H63.6572Z" fill="white"/>
<path d="M11.1199 40.5379C10.072 40.5379 9.53255 40.1558 9.05494 39.8187C8.63914 39.5237 8.30762 39.2905 7.59401 39.2905C6.8804 39.2905 6.54888 39.5237 6.13308 39.8187C5.65547 40.1558 5.11605 40.5379 4.07092 40.5379C3.02579 40.5379 2.48356 40.1558 2.00876 39.8187C1.59296 39.5237 1.26425 39.2905 0.54783 39.2905C0.261263 39.2905 0.0280762 39.0573 0.0280762 38.7707C0.0280762 38.4842 0.261263 38.251 0.54783 38.251C1.59577 38.251 2.13519 38.6331 2.60999 38.973C3.02579 39.268 3.3545 39.5012 4.07092 39.5012C4.78734 39.5012 5.11605 39.268 5.53185 38.973C6.00946 38.6359 6.54888 38.251 7.59401 38.251C8.63914 38.251 9.18137 38.6331 9.65898 38.973C10.0748 39.268 10.4063 39.5012 11.1199 39.5012C11.8335 39.5012 12.165 39.268 12.5808 38.973C13.0585 38.6359 13.5979 38.251 14.6458 38.251C14.9324 38.251 15.1656 38.4842 15.1656 38.7707C15.1656 39.0573 14.9324 39.2905 14.6458 39.2905C13.9294 39.2905 13.6007 39.5237 13.1849 39.8187C12.7073 40.1558 12.1678 40.5379 11.1227 40.5379H11.1199Z" fill="white"/>
<path d="M11.1199 44.5639C10.072 44.5639 9.53255 44.1818 9.05494 43.8419C8.63914 43.5469 8.30762 43.3137 7.59401 43.3137C6.8804 43.3137 6.54888 43.5469 6.13308 43.8419C5.65547 44.179 5.11605 44.5639 4.07092 44.5639C3.02579 44.5639 2.48356 44.1818 2.00876 43.8419C1.59296 43.5469 1.26425 43.3137 0.54783 43.3137C0.261263 43.3137 0.0280762 43.0805 0.0280762 42.7939C0.0280762 42.5074 0.261263 42.2742 0.54783 42.2742C1.59577 42.2742 2.13519 42.6563 2.60999 42.9962C3.02579 43.2912 3.3545 43.5244 4.07092 43.5244C4.78734 43.5244 5.11605 43.2912 5.53185 42.9962C6.00946 42.6591 6.54888 42.2742 7.59401 42.2742C8.63914 42.2742 9.18137 42.6563 9.65898 42.9962C10.0748 43.2912 10.4063 43.5244 11.1199 43.5244C11.8335 43.5244 12.165 43.2912 12.5808 42.9962C13.0585 42.6591 13.5979 42.2742 14.6458 42.2742C14.9324 42.2742 15.1656 42.5074 15.1656 42.7939C15.1656 43.0805 14.9324 43.3137 14.6458 43.3137C13.9294 43.3137 13.6007 43.5469 13.1849 43.8419C12.7073 44.179 12.1678 44.5639 11.1227 44.5639H11.1199Z" fill="white"/>
<path d="M11.1199 48.5927C10.072 48.5927 9.53255 48.2106 9.05494 47.8707C8.63914 47.5757 8.30762 47.3425 7.59401 47.3425C6.8804 47.3425 6.54888 47.5757 6.13308 47.8707C5.65547 48.2078 5.11605 48.5927 4.07092 48.5927C3.02579 48.5927 2.48356 48.2106 2.00876 47.8707C1.59296 47.5757 1.26425 47.3425 0.54783 47.3425C0.261263 47.3425 0.0280762 47.1093 0.0280762 46.8227C0.0280762 46.5362 0.261263 46.303 0.54783 46.303C1.59577 46.303 2.13519 46.6851 2.60999 47.025C3.02579 47.32 3.3545 47.5532 4.07092 47.5532C4.78734 47.5532 5.11605 47.32 5.53185 47.025C6.00946 46.6879 6.54888 46.303 7.59401 46.303C8.63914 46.303 9.18137 46.6851 9.65898 47.025C10.0748 47.32 10.4063 47.5532 11.1199 47.5532C11.8335 47.5532 12.165 47.32 12.5808 47.025C13.0585 46.6879 13.5979 46.303 14.6458 46.303C14.9324 46.303 15.1656 46.5362 15.1656 46.8227C15.1656 47.1093 14.9324 47.3425 14.6458 47.3425C13.9294 47.3425 13.6007 47.5757 13.1849 47.8707C12.7073 48.2078 12.1678 48.5927 11.1227 48.5927H11.1199Z" fill="white"/>
<path d="M47.1988 30.5585L46.4545 31.6594L54.1167 36.8393L54.861 35.7384L47.1988 30.5585Z" fill="white"/>
<path d="M29.6821 26.4457L28.9376 25.3444L34.2082 21.782L39.476 25.3444L38.7343 26.4457L34.2082 23.3862L29.6821 26.4457Z" fill="white"/>
<path d="M21.2263 30.5601L13.5641 35.74L14.3083 36.8409L21.9705 31.661L21.2263 30.5601Z" fill="white"/>
<path d="M54.1106 33.298L34.2082 19.8433L14.3059 33.298L13.5613 32.1966L34.2082 18.2419L54.8551 32.1966L54.1106 33.298Z" fill="white"/>
<path d="M49.1715 26.7969H47.8454V22.726H45.4546V24.3105H44.1285V21.3999H49.1715V26.7969Z" fill="white"/>
<path d="M50.7448 52.6357H38.7877V51.3068H49.4159V35.2871H50.7448V52.6357Z" fill="white"/>
<path d="M29.626 52.6357H17.6716V35.2871H18.9977V51.3068H29.626V52.6357Z" fill="white"/>
<path d="M39.4535 52.6357H28.9629V39.3215H39.4535V52.6357ZM30.2918 51.3068H38.1274V40.6476H30.2918V51.3068Z" fill="white"/>
<path d="M34.2082 35.5597C32.3315 35.5597 30.8031 34.0313 30.8031 32.1546C30.8031 30.2779 32.3315 28.7495 34.2082 28.7495C36.0849 28.7495 37.6133 30.2779 37.6133 32.1546C37.6133 34.0313 36.0849 35.5597 34.2082 35.5597ZM34.2082 30.0784C33.0619 30.0784 32.132 31.0111 32.132 32.1546C32.132 33.2981 33.0647 34.2308 34.2082 34.2308C35.3517 34.2308 36.2844 33.2981 36.2844 32.1546C36.2844 31.0083 35.3517 30.0784 34.2082 30.0784Z" fill="white"/>
<path d="M50.079 46.0923H38.7877V47.4212H50.079V46.0923Z" fill="white"/>
<path d="M29.626 46.0923H18.3347V47.4212H29.626V46.0923Z" fill="white"/>
<path d="M50.079 40.8752H38.7877V42.2041H50.079V40.8752Z" fill="white"/>
<path d="M29.626 40.8752H18.3347V42.2041H29.626V40.8752Z" fill="white"/>
<path d="M50.0818 35.6606H18.3347V36.9895H50.0818V35.6606Z" fill="white"/>
<path d="M48.9889 31.7751H36.7424V30.4463H44.6539L38.7343 26.4456L39.476 25.3442L48.9889 31.7751Z" fill="white"/>
<path d="M31.6741 31.7751H19.4276L28.9376 25.3442L29.6822 26.4456L23.7626 30.4463H31.6741V31.7751Z" fill="white"/>
<path fill-rule="evenodd" clip-rule="evenodd" d="M1.8009 22.6443L2.57913 23.2821L2.62408 23.2146C3.04269 22.6106 3.47255 22.0515 3.91644 21.5346C3.82935 21.779 3.75349 22.0066 3.69168 22.2032L3.68045 22.2369L4.64691 22.5038C4.97562 21.4475 5.39142 20.422 5.74261 19.7056C5.91399 19.5595 6.08255 19.4218 6.25955 19.2898C5.98422 19.9641 5.73699 20.658 5.58247 21.1469L5.57123 21.1806L6.5405 21.4418C6.93945 20.1663 7.46201 18.9302 7.84691 18.239C8.07167 18.1126 8.30485 17.9918 8.53523 17.8822C8.15033 18.6689 7.77386 19.5679 7.55472 20.1607L7.54348 20.1944L8.49871 20.5063C8.9707 19.2111 9.57474 17.9693 9.99335 17.3119C10.2659 17.222 10.5412 17.1461 10.8193 17.0787C10.3417 17.9159 9.83321 18.9779 9.55507 19.6494L9.54103 19.6831L10.4822 20.0343C11.0272 18.7166 11.7156 17.458 12.1623 16.8399C12.3898 16.8118 12.6202 16.7893 12.8534 16.7725C12.3617 17.5732 11.9431 18.5509 11.62 19.3263L11.6088 19.36L12.5444 19.7084C13.1456 18.2615 13.6597 17.2754 14.0896 16.7444C14.4239 16.7528 14.7639 16.7697 15.1094 16.8006C14.5616 17.5985 14.0868 18.6155 13.7215 19.4078L13.7075 19.4415L14.0531 19.5848C11.3672 21.4756 9.61407 23.9872 8.78808 27.1254C8.32171 28.8898 8.18405 30.7328 8.25147 32.5533L9.25446 32.5955V32.5168C9.22355 31.7835 9.23198 31.0756 9.27694 30.3957C9.3556 30.6457 9.42865 30.8733 9.49888 31.0643L9.51293 31.098L10.4457 30.73C10.0748 29.6877 9.79107 28.6173 9.64498 27.8334C9.69555 27.6171 9.74893 27.4008 9.80793 27.1929C9.99335 27.8952 10.2097 28.6004 10.3811 29.0864L10.3923 29.1202L11.325 28.7521C10.8783 27.4935 10.5581 26.1899 10.4513 25.406C10.5552 25.1672 10.6704 24.9368 10.7912 24.7065C10.9514 25.5662 11.1902 26.513 11.3728 27.117L11.3812 27.1507L12.3308 26.8276C11.9347 25.51 11.6734 24.153 11.6116 23.3748C11.7774 23.1416 11.9516 22.914 12.137 22.6921C12.255 23.6473 12.4854 24.8048 12.6652 25.51L12.6736 25.5437L13.6373 25.2627C13.2833 23.8805 13.0782 22.4617 13.0641 21.6975C13.2299 21.5374 13.4013 21.3828 13.5783 21.2311C13.6653 22.1639 13.9154 23.2006 14.1233 24.0097L14.1317 24.0462L15.0926 23.7625C14.7077 22.2454 14.5279 21.144 14.5531 20.467C14.8285 20.2731 15.1122 20.0821 15.4072 19.9022C15.4494 20.8687 15.6741 21.9672 15.8596 22.8185L15.8652 22.8522L16.8373 22.605C16.5085 21.1075 16.3653 20.0146 16.4074 19.3347C16.6968 19.183 16.9918 19.0397 17.298 18.8965C17.3205 19.8152 17.5256 20.8743 17.711 21.7312C17.6885 21.8211 17.6689 21.9138 17.6492 22.0009C17.062 24.6559 17.2109 27.176 18.0931 29.5556C18.3628 29.3224 18.6353 29.0949 18.9106 28.8701C18.8685 28.7437 18.8292 28.6173 18.7898 28.4908C18.8938 28.5639 19.0006 28.6369 19.1073 28.71C19.3798 28.4908 19.658 28.2745 19.9361 28.0638C19.3152 27.6564 18.7842 27.2659 18.4415 26.9653C18.3965 26.6843 18.3628 26.4006 18.3375 26.1112C19.0202 26.6562 19.8855 27.2519 20.5036 27.6368C20.5682 27.6761 20.6301 27.7154 20.6862 27.7519L20.7171 27.7716L20.9869 27.2884L21.2088 26.8951C19.9867 26.1562 18.8488 25.288 18.3038 24.7514C18.3094 24.521 18.3207 24.2907 18.3431 24.0603C19.0596 24.6671 19.9642 25.229 20.6834 25.6645L20.7143 25.6842L21.2004 24.8076C19.8631 23.9957 18.964 23.3382 18.5061 22.8325C18.5651 22.5038 18.6353 22.1695 18.7196 21.8352C19.4248 22.4954 20.3547 23.1191 21.088 23.5995L21.1189 23.6164L21.6358 22.7623C20.3519 21.9195 19.4866 21.2424 19.0371 20.7254C19.1382 20.4164 19.2478 20.1045 19.3686 19.7899C20.085 20.481 21.0627 21.1412 21.8269 21.6413L21.8578 21.661L22.0854 21.2901L22.0938 21.2733L22.1528 21.1778L22.164 21.1609L22.2034 21.0963L22.2146 21.0794L22.2343 21.0485L22.2539 21.0176L22.2652 21.0008L22.2764 20.9867L22.2876 20.9699L22.2961 20.9558L22.3073 20.9389L22.3186 20.9221L22.3298 20.908L22.341 20.8912L22.3523 20.8743L22.3607 20.8575L22.3719 20.8406L22.3832 20.8266L22.3944 20.8097C21.1217 19.9781 20.2592 19.3038 19.8069 18.7869L19.8181 18.7616C19.9305 18.5116 20.0485 18.2615 20.1721 18.0115C22.8439 19.0173 25.1477 21.2901 26.9542 23.8046C27.2632 23.6557 27.5723 23.5124 27.8841 23.372C27.5639 22.9196 27.2323 22.4842 26.8952 22.0684C27.297 22.4645 27.6847 22.8747 28.0555 23.2933C28.3786 23.15 28.7045 23.0095 29.036 22.8747C26.6423 20.1214 24.0099 18.18 21.4364 17.3007C21.6443 17.0984 21.8494 16.9017 22.0573 16.7135L22.0769 16.6938C22.7063 16.9635 23.6165 17.5732 24.8049 18.5228L24.8302 18.4947L24.8443 18.4807L24.8555 18.4666L24.8668 18.4526L24.878 18.4357L24.8892 18.4217L24.9005 18.4076L24.9145 18.3907L24.9257 18.3795L24.951 18.3514L24.9623 18.3374L24.9876 18.3093L25.0241 18.2643L25.0746 18.2081L25.0859 18.1941L25.1589 18.107L25.173 18.0929L25.4567 17.7614L25.4286 17.7389C24.7178 17.1714 23.7851 16.4438 22.9057 15.9802C23.1642 15.7695 23.4283 15.5672 23.6896 15.3734C24.3217 15.6403 25.2376 16.2499 26.4344 17.208L27.089 16.4494L27.061 16.4241C26.3783 15.8791 25.4933 15.1907 24.6476 14.7244C24.9398 14.5418 25.2348 14.3704 25.5298 14.2102C26.1535 14.4884 27.0581 15.1374 28.2466 16.1572L28.9236 15.4183L28.8984 15.393C28.2606 14.8508 27.4459 14.1625 26.6451 13.6736C26.8587 13.5837 27.075 13.4994 27.2913 13.4208C27.9712 13.772 29.1512 14.5839 30.2357 15.5138L30.9128 14.7749L30.8875 14.7525C30.334 14.2777 29.4013 13.5612 28.5949 13.0331C28.8759 12.9684 29.1568 12.9094 29.4378 12.8645C30.1092 13.2606 31.2106 14.0979 32.2135 15.039L32.9243 14.3339L32.8991 14.3086C32.4383 13.8759 31.6938 13.2466 30.997 12.7184C31.2527 12.71 31.514 12.7128 31.7725 12.724C32.4299 13.1679 33.4553 14.0304 34.3881 14.9913L35.1326 14.317L35.1073 14.2917C34.7505 13.9237 34.2139 13.418 33.6632 12.9375C33.8768 12.9769 34.0959 13.0246 34.3094 13.0752C34.9472 13.5556 35.7816 14.2833 36.5514 15.0756L37.2959 14.4041L37.2706 14.3788C37.1301 14.2327 36.9588 14.0641 36.7705 13.8843C37.3998 14.1456 38.0348 14.449 38.681 14.8002L38.7512 14.8368L39.1614 13.9181C37.56 13.0499 35.8462 12.3588 34.0594 11.9907C30.3761 11.2378 26.8924 11.9767 23.6025 14.2046L23.5969 14.1597V14.14L23.521 13.7102L23.4873 13.7158C22.5939 13.8984 21.442 14.1512 20.5205 14.5305C20.5205 14.1934 20.5345 13.8647 20.557 13.5388C21.1667 13.2241 22.223 12.9123 23.7233 12.6032L23.5547 11.6143L23.521 11.6199C22.6641 11.7969 21.5684 12.0329 20.6694 12.3897C20.7171 12.0469 20.7733 11.7098 20.8408 11.3811C21.4504 11.0805 22.5293 10.7995 24.0745 10.5382L23.9424 9.54369L23.9059 9.54931C23.0827 9.69259 22.032 9.88083 21.1442 10.1786C21.2116 9.95949 21.2847 9.74035 21.3633 9.52402C22.0685 9.22622 23.4452 8.8357 24.8527 8.5997L24.7207 7.60515L24.6869 7.61077C23.9705 7.73157 22.8186 7.99005 21.8999 8.271C22.0264 8.01533 22.164 7.76248 22.3101 7.51524C23.0462 7.25396 24.3919 6.9393 25.7602 6.77073L25.6703 5.77056L25.6365 5.77617C25.01 5.85484 24.0492 6.0206 23.1979 6.22288C23.3581 6.0206 23.5238 5.82113 23.698 5.63008C24.4594 5.40813 25.7798 5.17214 27.1143 5.07099L27.0722 4.07082H27.0357C26.5243 4.11296 25.7939 4.20006 25.0746 4.31524C25.2432 4.17758 25.4174 4.03991 25.5944 3.90506C26.3698 3.72244 27.4627 3.54545 28.5668 3.46116L28.5247 2.45818H28.491C28.2887 2.47784 28.0499 2.50032 27.7886 2.53122C28.3898 2.21375 29.0332 1.91876 29.7159 1.64905L29.789 1.61814L29.3423 0.716298C27.6509 1.39057 26.0243 2.26432 24.5998 3.40778C21.7342 5.70032 20.0822 8.75984 19.6439 12.5807L19.554 12.533L19.54 12.5611C19.1382 13.3814 18.6353 14.449 18.374 15.4099C18.1128 15.2048 17.8571 14.9913 17.6127 14.7749C17.7335 14.1035 18.1296 13.078 18.8011 11.6958L17.9161 11.2238L17.902 11.2575C17.5171 12.0413 17.0395 13.0555 16.7698 13.9855C16.5282 13.7411 16.295 13.491 16.0759 13.2353C16.2107 12.5695 16.6462 11.544 17.3795 10.159L16.5085 9.65888L16.4945 9.68978C16.1012 10.4287 15.6123 11.3783 15.3089 12.2633C15.174 12.075 15.0448 11.884 14.9212 11.6901C15.115 10.9484 15.6488 9.61955 16.3147 8.35809L15.4466 7.85519L15.4297 7.8861C15.0898 8.52947 14.5953 9.59707 14.2525 10.4989C14.1261 10.2404 14.0109 9.97916 13.9042 9.71226C14.1458 8.96775 14.7189 7.71191 15.4185 6.5235L14.5728 5.98689L14.5531 6.01498C14.2329 6.56002 13.7833 7.42253 13.4209 8.22042C13.3591 7.97038 13.3029 7.71753 13.258 7.46186C13.5445 6.72578 14.1654 5.53456 14.8987 4.41639L14.0783 3.83763L14.0587 3.86573C13.7805 4.29558 13.4013 4.93052 13.0557 5.57108C13.0473 5.35194 13.0473 5.1328 13.0501 4.91085C13.376 4.1832 13.9042 3.20831 14.5082 2.2868L13.6878 1.70804L13.6682 1.73614C13.5558 1.90752 13.4293 2.1098 13.2945 2.33456C13.4097 1.66309 13.5698 0.97477 13.7693 0.26959L13.7918 0.193734L12.8056 -0.00292969C12.3084 1.75019 12.0106 3.57354 12.0471 5.39689C12.1314 9.68416 14.0446 13.2943 17.7953 16.2274C13.0276 15.1065 8.92856 15.9044 5.5038 18.6183C4.07377 19.7533 2.85727 21.144 1.82057 22.6415L1.8009 22.6443ZM20.5963 16.691C20.5626 16.337 20.5401 15.9886 20.5233 15.6487V15.6206C20.9672 15.393 21.6499 15.1655 22.5686 14.9407C21.9027 15.4605 21.2453 16.0448 20.5963 16.691ZM19.2309 16.0645C19.2815 15.7976 19.3714 15.4745 19.5063 15.1008C19.5119 15.4886 19.5315 15.8875 19.5596 16.2921C19.4557 16.2218 19.3545 16.1544 19.2534 16.0842L19.2309 16.0673V16.0645ZM18.3094 18.461L18.3347 18.4497C18.5314 18.3739 18.7308 18.298 18.9359 18.225C18.7252 18.6857 18.537 19.1465 18.3684 19.6016C18.3122 19.1437 18.2954 18.7616 18.3122 18.4582L18.3094 18.461ZM16.2557 16.9467C16.576 17.0001 16.9019 17.0591 17.2306 17.1321C17.0227 17.4271 16.8204 17.7558 16.635 18.0929C16.0815 18.3542 15.5589 18.6352 15.0588 18.9358C15.5168 18.0115 15.9157 17.3512 16.2557 16.9467Z" fill="white"/>
<path d="M59.429 17.4353C59.6509 17.6853 59.8111 17.868 60.0386 18.1236C58.3024 19.5817 56.5858 21.023 54.8271 22.498C54.6192 22.2564 54.445 22.0541 54.2286 21.804C55.9621 20.3487 57.6646 18.9187 59.429 17.4381V17.4353Z" fill="white"/>
<path d="M50.2617 9.93408C50.5454 10.1055 50.773 10.2403 51.0455 10.4061C49.9133 12.3643 48.8063 14.286 47.6657 16.261C47.3876 16.1121 47.1628 15.9913 46.8622 15.8312C48.0085 13.8449 49.1238 11.9091 50.2645 9.93689L50.2617 9.93408Z" fill="white"/>
<path d="M62.9099 22.2537C63.0813 22.5515 63.2021 22.7594 63.3679 23.0487C61.404 24.1838 59.4655 25.3048 57.4989 26.4398C57.3303 26.1701 57.201 25.965 57.0184 25.67C58.9795 24.535 60.9152 23.4112 62.9099 22.2565V22.2537Z" fill="white"/>
<path d="M55.1754 13.283C55.417 13.4937 55.6137 13.665 55.8665 13.887C54.4112 15.6204 52.9896 17.3146 51.5315 19.0536C51.2814 18.8682 51.0735 18.7137 50.7954 18.5058C52.2676 16.7499 53.706 15.0361 55.1754 13.283Z" fill="white"/>
<path d="M39.0743 6.0542C39.3889 6.10477 39.6193 6.13848 39.9649 6.19467C39.5715 8.43664 39.1866 10.6337 38.7933 12.8841C38.473 12.8251 38.2398 12.7829 37.9055 12.7211C38.296 10.5016 38.6809 8.30459 39.0771 6.0542H39.0743Z" fill="white"/>
<path d="M44.8421 7.50391C45.1427 7.6191 45.3815 7.71181 45.6906 7.82981C44.9095 9.97344 44.151 12.0609 43.3699 14.2045C43.0637 14.0809 42.8221 13.9854 42.5243 13.8674C43.3025 11.735 44.0639 9.64754 44.8449 7.50391H44.8421Z" fill="white"/>
<path d="M59.4543 30.7805C59.3363 30.4996 59.2436 30.2805 59.1003 29.9461C61.2411 29.1623 63.3426 28.3953 65.4947 27.6086C65.5986 27.9093 65.6829 28.1565 65.7897 28.4712C63.6544 29.2494 61.5726 30.0079 59.4543 30.7777V30.7805Z" fill="white"/>
<path d="M6.76523 34.5114C6.70904 34.8401 6.6669 35.0733 6.61071 35.3992C4.40527 35.0143 2.24478 34.6378 0 34.2473C0.0168569 33.9664 0.0309043 33.7163 0.0533802 33.3342C2.30378 33.7276 4.48674 34.1096 6.76523 34.5086V34.5114Z" fill="white"/>
<path d="M67.1157 33.3315C67.1607 33.6771 67.1887 33.9103 67.2309 34.2362C65.0142 34.6267 62.8369 35.0088 60.6061 35.4021C60.5443 35.0903 60.4994 34.8599 60.4319 34.5228C62.6542 34.1266 64.8344 33.7389 67.1157 33.3315Z" fill="white"/>
<path d="M87.4283 21.9558V22.5205C85.7201 22.5205 84.8688 23.3886 84.8688 25.1249V39.3858C84.8688 41.1109 85.7229 41.9762 87.4283 41.9762V42.5409H78.6852V41.9762C80.3933 41.9762 81.2446 41.1137 81.2446 39.3858V25.1249C81.2446 23.3999 80.3905 22.5318 78.6852 22.5205V21.9558H87.4283Z" fill="white"/>
<path d="M95.9972 39.0431C95.9972 41.0238 96.6574 42.0268 97.9779 42.0577V42.5381H90.5356V42.0577C91.8926 42.0296 92.5725 41.0238 92.5725 39.0431V24.5294C92.6006 22.897 91.9207 22.2087 90.5356 22.4644V21.9559L95.9972 21.1355V39.0459V39.0431Z" fill="white"/>
<path d="M112.983 29.7635C114.172 31.0165 114.812 32.6909 114.908 34.7868H104.678C104.555 36.5989 104.962 38.1526 105.895 39.4562C106.828 40.7485 107.994 41.375 109.39 41.3385C110.598 41.3104 111.612 40.8806 112.433 40.0518C113.253 39.223 113.866 38.1273 114.273 36.7703H114.725C114.338 38.6667 113.523 40.1501 112.278 41.2261C111.042 42.2909 109.57 42.8247 107.864 42.8247C105.979 42.8247 104.369 42.1167 103.041 40.7036C101.74 39.3073 101.088 37.5738 101.088 35.4976C101.088 33.4214 101.74 31.5503 103.041 30.109C104.361 28.6284 106.058 27.8867 108.134 27.8867C110.21 27.8867 111.817 28.5132 112.986 29.7691L112.983 29.7635ZM106.533 29.1426C106.1 29.5303 105.76 30.0247 105.513 30.6288C105.268 31.2131 105.083 31.8031 104.962 32.3959C104.839 32.9719 104.76 33.5366 104.721 34.0929H111.27C111.298 33.3849 111.216 32.6263 111.028 31.8144C110.859 30.994 110.505 30.2354 109.966 29.5359C109.438 28.8279 108.8 28.4879 108.055 28.516C107.491 28.5357 106.979 28.7436 106.527 29.1397L106.533 29.1426Z" fill="white"/>
<path d="M128.854 21.9558C130.363 21.9558 131.787 22.2255 133.127 22.7621C134.496 23.3268 135.659 24.0742 136.622 24.9985C137.583 25.9425 138.345 27.0213 138.901 28.2378C139.505 29.5302 139.817 30.8647 139.834 32.2413C139.909 35.062 138.988 37.4866 137.075 39.5123C135.17 41.5295 132.83 42.5409 130.057 42.5409H118.018V41.9762C119.743 41.9481 120.608 41.094 120.608 39.4167V25.1137C120.608 23.4167 119.746 22.5542 118.018 22.5233V21.9586H128.854V21.9558ZM124.199 38.5346C124.199 40.7709 125.525 41.8863 128.174 41.8863C129.25 41.8863 130.219 41.7346 131.088 41.4339C131.964 41.1333 132.818 40.5377 133.647 39.6499C134.459 38.7818 135.066 37.731 135.473 36.4949C135.906 35.2025 136.105 33.7837 136.069 32.2357C135.985 29.547 135.102 27.2713 133.422 25.403C132.61 24.4984 131.593 23.7988 130.366 23.31C129.141 22.8183 127.919 22.5739 126.702 22.5739H124.199V38.5318V38.5346Z" fill="white"/>
<path d="M155.263 29.9489C156.516 31.289 157.174 33.0618 157.23 35.2673C157.23 37.3884 156.516 39.1865 155.095 40.6559C153.679 42.128 151.993 42.8641 150.029 42.8641C148.065 42.8641 146.422 42.1561 145.065 40.743C143.725 39.3382 143.056 37.602 143.056 35.537C143.056 33.472 143.73 31.6178 145.079 30.1484C146.436 28.6594 148.178 27.9177 150.299 27.9261C152.372 27.9345 154.03 28.6088 155.263 29.9489ZM147.765 30.6401C147.113 31.9802 146.79 33.6012 146.79 35.5061C146.79 37.4109 147.116 38.9449 147.765 40.2457C148.417 41.5184 149.209 42.1561 150.142 42.1561C151.074 42.1561 151.928 41.4903 152.589 40.1614C153.268 38.8325 153.608 37.2058 153.608 35.2813C153.608 33.3568 153.322 31.6739 152.746 30.4574C152.17 29.2325 151.355 28.6172 150.299 28.6172C149.243 28.6172 148.436 29.2915 147.768 30.6401H147.765Z" fill="white"/>
<path d="M165.641 29.9911C166.481 28.6425 167.692 27.9683 169.277 27.9683C170.238 27.9767 171.103 28.1986 171.867 28.6341C172.527 29.0106 172.856 29.4966 172.856 30.0922C172.856 30.4125 172.755 30.6991 172.553 30.9491C172.35 31.1992 172.058 31.3228 171.676 31.3228C171.294 31.3228 170.979 31.2273 170.729 31.0334C170.479 30.8396 170.26 30.5361 170.072 30.1203C169.828 29.6118 169.572 29.2719 169.308 29.1005C168.976 28.8448 168.611 28.7521 168.204 28.8167C167.628 28.8842 167.052 29.359 166.479 30.2468C165.922 31.1345 165.644 32.1572 165.644 33.3175V39.018C165.644 41.0183 166.29 42.0297 167.583 42.0606V42.541H160.34V42.0606C161.613 42.0044 162.25 40.9902 162.25 39.018V31.379C162.25 29.7579 161.613 29.0443 160.34 29.2438V28.7633L165.262 27.9711C165.518 28.2914 165.644 28.9656 165.644 29.9939L165.641 29.9911Z" fill="white"/>
<path d="M186.873 29.7635C188.061 31.0165 188.702 32.6909 188.797 34.7868H178.568C178.444 36.5989 178.852 38.1526 179.784 39.4562C180.717 40.7485 181.883 41.375 183.279 41.3385C184.487 41.3104 185.502 40.8806 186.322 40.0518C187.142 39.223 187.755 38.1273 188.162 36.7703H188.615C188.227 38.6667 187.412 40.1501 186.168 41.2261C184.931 42.2909 183.459 42.8247 181.754 42.8247C179.869 42.8247 178.259 42.1167 176.93 40.7036C175.629 39.3073 174.977 37.5738 174.977 35.4976C174.977 33.4214 175.629 31.5503 176.93 30.109C178.25 28.6284 179.947 27.8867 182.024 27.8867C184.1 27.8867 185.707 28.5132 186.876 29.7691L186.873 29.7635ZM180.422 29.1426C179.989 29.5303 179.65 30.0247 179.402 30.6288C179.158 31.2131 178.972 31.8031 178.852 32.3959C178.728 32.9719 178.649 33.5366 178.61 34.0929H185.159C185.187 33.3849 185.106 32.6263 184.917 31.8144C184.749 30.994 184.395 30.2354 183.855 29.5359C183.327 28.8279 182.689 28.4879 181.945 28.516C181.38 28.5357 180.869 28.7436 180.417 29.1397L180.422 29.1426Z" fill="white"/>
</g>
<defs>
<clipPath id="clip0_6_840">
<rect width="188.797" height="64" fill="white"/>
</clipPath>
</defs>
</svg>
